<svg width="129" height="128" viewBox="0 0 129 128" fill="none" xmlns="http://www.w3.org/2000/svg">
<path d="M115.46 30.7002L67.1601 2.9002C66.3601 2.4002 65.2601 2.2002 64.0601 2.2002C62.8601 2.2002 61.7601 2.5002 60.9601 2.9002L12.9601 30.8002C11.2601 31.8002 10.0601 34.3002 10.0601 36.2002V91.9002C10.0601 93.0002 10.2601 94.3002 11.0601 95.4002L117.86 33.4002C117.26 32.2002 116.36 31.3002 115.46 30.7002Z" fill="#9B4F96"/>
<path d="M10.76 95.2998C11.26 96.0998 11.96 96.7998 12.66 97.1998L60.86 125.1C61.66 125.6 62.76 125.8 63.96 125.8C65.16 125.8 66.26 125.5 67.06 125.1L115.06 97.1998C116.76 96.1998 117.96 93.6998 117.96 91.7998V36.0998C117.96 35.1998 117.86 34.1998 117.36 33.2998L10.76 95.2998Z" fill="#68217A"/>
<path d="M85.3601 76.1C81.1601 83.5 73.1601 88.5 64.0601 88.5C50.5601 88.5 39.5601 77.5 39.5601 64C39.5601 50.5 50.5601 39.5 64.0601 39.5C73.1601 39.5 81.1601 44.5 85.3601 52L98.3601 44.5C91.5601 32.6 78.7601 24.5 64.0601 24.5C42.2601 24.5 24.5601 42.2 24.5601 64C24.5601 85.8 42.2601 103.5 64.0601 103.5C78.6601 103.5 91.4601 95.5 98.2601 83.7L85.3601 76.1ZM97.0601 66.2L97.9601 61.9H93.7601V57.2H98.8601L100.06 51H104.96L103.76 57.1H107.56L108.76 51H113.56L112.36 57.1H114.76V61.8H111.46L110.56 66.1H114.76V70.8H109.66L108.46 76.8H103.56L104.76 70.8H100.96L99.7601 76.8H94.9601L96.1601 70.8H93.7601V66.1H97.0601V66.2ZM101.86 66.2H105.66L106.56 61.9H102.76L101.86 66.2Z" fill="white"/>
</svg>
