<svg width="129" height="128" viewBox="0 0 129 128" fill="none" xmlns="http://www.w3.org/2000/svg">
<path d="M8.82007 1L18.8751 113.883L63.9931 126.463L109.237 113.837L119.3 1H8.82007ZM98.4111 26.862L95.0641 64.467L95.0741 64.67L95.0601 65.137V65.133L92.6821 91.427L92.4201 93.763L64.0601 101.607V101.608L64.0381 101.627L35.7271 93.739L33.8101 72H47.6931L48.6781 83.054L64.0641 87.224L64.0601 87.232V87.23L79.5031 83.001L81.1351 65H48.8521L48.5751 61.957L47.9441 54.828L47.6131 51H82.3621L83.6261 37H30.7001L30.4231 33.959L29.7931 26.828L29.4611 23H98.7421L98.4111 26.862Z" fill="#1572B6"/>
</svg>
