<svg width="128" height="128" viewBox="0 0 128 128" fill="none" xmlns="http://www.w3.org/2000/svg">
<path d="M19.037 113.876L9.03198 1.66113H118.968L108.952 113.859L63.933 126.339L19.037 113.876Z" fill="#E44D26"/>
<path d="M64 116.8L100.378 106.714L108.937 10.8359H64V116.8Z" fill="#F16529"/>
<path d="M64 52.4546H45.788L44.53 38.3606H64V24.5986H29.489L29.819 28.2906L33.201 66.2176H64V52.4546ZM64 88.1976L63.939 88.2146L48.612 84.0746L47.633 73.0996H33.816L35.744 94.7086L63.937 102.535L64 102.518V88.1976Z" fill="#EBEBEB"/>
<path d="M63.952 52.4546V66.2176H80.899L79.302 84.0666L63.952 88.2096V102.529L92.167 94.7086L92.374 92.3836L95.608 56.1506L95.943 52.4546H92.235H63.952ZM63.952 24.5986V38.3606H97.196L97.472 35.2686L98.1 28.2906L98.429 24.5986H63.952Z" fill="white"/>
</svg>
