<svg width="129" height="128" viewBox="0 0 129 128" fill="none" xmlns="http://www.w3.org/2000/svg">
<path d="M1.46802 1.4082H126.652V126.593H1.46802V1.4082Z" fill="#F0DB4F"/>
<path d="M116.407 96.7359C115.49 91.0249 111.766 86.2279 100.735 81.7549C96.9031 79.9939 92.6311 78.7329 91.3581 75.8289C90.9061 74.1389 90.8461 73.1869 91.1321 72.1639C91.9531 68.8439 95.9161 67.8089 99.0571 68.7609C101.08 69.4389 102.995 70.9979 104.15 73.4849C109.552 69.9869 109.541 70.0099 113.313 67.6059C111.932 65.4649 111.195 64.4769 110.291 63.5609C107.042 59.9319 102.615 58.0629 95.5351 58.2059L91.8471 58.6829C88.3131 59.5759 84.9451 61.4309 82.9701 63.9179C77.0441 70.6419 78.7341 82.4099 85.9451 87.2529C93.0491 92.5849 103.485 93.7979 104.818 98.7839C106.115 104.888 100.332 106.864 94.5841 106.162C90.3481 105.281 87.9921 103.128 85.4451 99.2129C80.7571 101.926 80.7571 101.926 75.9371 104.698C77.0801 107.197 78.2811 108.328 80.1971 110.493C89.2651 119.691 111.957 119.239 116.027 105.317C116.192 104.839 117.288 101.651 116.407 96.7359ZM69.5221 58.9429H57.8131L57.7651 89.2149C57.7651 95.6529 58.0981 101.555 57.0511 103.364C55.3381 106.922 50.8991 106.481 48.8761 105.791C46.8171 104.779 45.7701 103.34 44.5571 101.306C44.2241 100.722 43.9741 100.27 43.8901 100.235L34.3701 106.065C35.9531 109.314 38.2851 112.134 41.2721 113.966C45.7341 116.644 51.7311 117.465 58.0031 116.025C62.0851 114.836 65.6071 112.373 67.4511 108.624C70.1171 103.709 69.5451 97.7599 69.5211 91.1799C69.5811 80.4449 69.5221 69.7119 69.5221 58.9429Z" fill="#323330"/>
</svg>
