<svg width="129" height="128" viewBox="0 0 129 128" fill="none" xmlns="http://www.w3.org/2000/svg">
<path d="M8.06006 70.2002L39.9391 57.3202C43.1751 53.043 46.82 49.091 50.8221 45.5202C53.4581 44.1212 58.4191 44.8792 67.5021 33.6022C76.2981 22.6022 79.0991 13.1992 83.2201 13.1992C89.7401 13.1992 94.5401 27.2812 101.822 48.6022C107.011 64.8868 113.099 80.8707 120.06 96.4802C112.458 89.3982 105.982 81.7622 98.5801 81.9602C91.7001 82.1212 84.0601 90.2812 75.7001 100.762C69.0601 109.16 60.2601 114.922 56.8231 114.8C56.8231 114.8 47.9401 89.6792 40.5031 85.6002C38.9593 84.9686 37.288 84.7116 35.6258 84.8501C33.9637 84.9886 32.3579 85.5188 30.9401 86.3972L8.06006 70.1602V70.2002Z" fill="#4499DD"/>
<path d="M79.2601 16.0781C76.5801 19.6801 73.3401 26.2811 67.5001 33.6021C58.4181 44.8791 53.5001 44.1221 50.8201 45.5201C46.8 49.0722 43.1536 53.0261 39.9381 57.3201L53.1381 66.9601C64.3401 51.6801 70.3401 35.1221 75.0201 24.3991C76.1928 21.51 77.6107 18.7265 79.2581 16.0791L79.2601 16.0781Z" fill="url(#paint0_linear_3_7169)"/>
<path d="M83.26 13.2002C74.54 13.2002 68.58 59.1212 36.38 84.7622C45.42 83.2822 53.26 105.719 56.86 114.801C72.86 112.078 85.662 81.4812 98.58 81.9612C105.982 82.2382 112.458 89.3982 120.06 96.4812C102.7 60.0002 94.58 13.1982 83.26 13.1982V13.2002Z" fill="url(#paint1_linear_3_7169)"/>
<defs>
<linearGradient id="paint0_linear_3_7169" x1="67.2721" y1="61.4761" x2="60.1121" y2="38.3561" gradientUnits="userSpaceOnUse">
<stop stop-color="#551122"/>
<stop offset="0.23" stop-color="#552233"/>
<stop offset="0.36" stop-color="#553344"/>
<stop offset="0.51" stop-color="#664455"/>
<stop offset="0.66" stop-color="#556688"/>
<stop offset="0.84" stop-color="#2299DD"/>
</linearGradient>
<linearGradient id="paint1_linear_3_7169" x1="118.9" y1="75.9323" x2="46.9" y2="58.2522" gradientUnits="userSpaceOnUse">
<stop offset="0.081" stop-color="#CC3333"/>
<stop offset="0.189" stop-color="#DE5239"/>
<stop offset="0.313" stop-color="#F06E3E"/>
<stop offset="0.421" stop-color="#FA8042"/>
<stop offset="0.5" stop-color="#FE8643"/>
<stop offset="0.58" stop-color="#FA7F42"/>
<stop offset="0.696" stop-color="#EF6C3E"/>
<stop offset="0.833" stop-color="#DC4C37"/>
<stop offset="0.916" stop-color="#CF3633"/>
</linearGradient>
</defs>
</svg>
