<svg width="128" height="128" viewBox="0 0 128 128" fill="none" xmlns="http://www.w3.org/2000/svg">
<path d="M100.1 38.3L90.9 47.5C106 62.6 106 86.9 90.9 101.8C75.8 116.9 51.5 116.9 36.6 101.8C21.5 86.7 21.5 62.4 36.6 47.5L60.6 23.5L64 20.1V2L27.8 38.2C7.69998 58.3 7.69998 90.8 27.8 111C47.9 131.2 80.4 131.1 100.2 111C120.3 90.8 120.3 58.5 100.1 38.3Z" fill="#EE4C2C"/>
<path d="M88.7693 29.4938C88.8378 25.7942 85.8943 22.7396 82.1947 22.6711C78.4951 22.6026 75.4405 25.5461 75.372 29.2457C75.3035 32.9453 78.247 35.9999 81.9466 36.0684C85.6461 36.1369 88.7008 33.1934 88.7693 29.4938Z" fill="#EE4C2C"/>
</svg>
